<?xml version="1.0" encoding="UTF-8" standalone="no"?>
<svg
   xmlns:dc="http://purl.org/dc/elements/1.1/"
   xmlns:cc="http://creativecommons.org/ns#"
   xmlns:rdf="http://www.w3.org/1999/02/22-rdf-syntax-ns#"
   xmlns:svg="http://www.w3.org/2000/svg"
   xmlns="http://www.w3.org/2000/svg"
   xmlns:sodipodi="http://sodipodi.sourceforge.net/DTD/sodipodi-0.dtd"
   xmlns:inkscape="http://www.inkscape.org/namespaces/inkscape"
   version="1.1"
   width="104"
   height="100.89364"
   viewBox="0 0 104 100.89364"
   enable-background="new 0 0 76.00 76.00"
   xml:space="preserve"
   id="svg2"
   inkscape:version="0.48.4 r9939"
   sodipodi:docname="linkedin.svg"><metadata
   id="metadata10"><rdf:RDF><cc:Work
       rdf:about=""><dc:format>image/svg+xml</dc:format><dc:type
         rdf:resource="http://purl.org/dc/dcmitype/StillImage" /></cc:Work></rdf:RDF></metadata><defs
   id="defs8" /><sodipodi:namedview
   pagecolor="#ffffff"
   bordercolor="#666666"
   borderopacity="1"
   objecttolerance="10"
   gridtolerance="10"
   guidetolerance="10"
   inkscape:pageopacity="0"
   inkscape:pageshadow="2"
   inkscape:window-width="793"
   inkscape:window-height="558"
   id="namedview6"
   showgrid="false"
   fit-margin-top="20"
   fit-margin-left="20"
   fit-margin-right="20"
   fit-margin-bottom="20"
   inkscape:zoom="3.1052632"
   inkscape:cx="39"
   inkscape:cy="38"
   inkscape:window-x="535"
   inkscape:window-y="375"
   inkscape:window-maximized="0"
   inkscape:current-layer="svg2" />
	<path
   d="m 20,80.893642 15.157895,0 0,-41.262989 -15.157895,0 M 27.765389,20 C 23.070821,20 20,23.079916 20,27.128253 c 0,3.9616 2.981895,7.133136 7.583326,7.133136 l 0.09162,0 c 4.784842,0 7.761179,-3.171536 7.761179,-7.133136 C 35.345855,23.079916 32.459788,20 27.765388,20 z M 84,57.495579 l 0,23.398063 -13.473684,0 0,-21.894737 c 0,-5.545937 -2.227705,-9.249516 -7.192927,-9.249516 -3.790315,0 -6.04581,2.550737 -7.038989,5.0176 -0.361095,0.882527 -0.925979,2.154779 -0.925979,3.389979 l 0,22.736674 -13.473684,0 c 0,0 0,-35.368421 0,-41.262989 l 13.473684,0 0,6.315621 0,0 0.471916,-0.07175 0,-0.133726 C 57.662484,42.933389 60.918063,38.921937 68.204295,38.921937 77.233347,38.921937 84,44.820716 84,57.495579 z"
   id="path4"
   style="fill:#ffffff;fill-opacity:1;stroke-width:0.2;stroke-linejoin:round"
   inkscape:connector-curvature="0" />
</svg>