<?xml version="1.0" encoding="UTF-8" standalone="no"?>
<svg
   xmlns:dc="http://purl.org/dc/elements/1.1/"
   xmlns:cc="http://creativecommons.org/ns#"
   xmlns:rdf="http://www.w3.org/1999/02/22-rdf-syntax-ns#"
   xmlns:svg="http://www.w3.org/2000/svg"
   xmlns="http://www.w3.org/2000/svg"
   xmlns:sodipodi="http://sodipodi.sourceforge.net/DTD/sodipodi-0.dtd"
   xmlns:inkscape="http://www.inkscape.org/namespaces/inkscape"
   version="1.1"
   width="104"
   height="104"
   viewBox="0 0 104 104"
   enable-background="new 0 0 76.00 76.00"
   xml:space="preserve"
   id="svg2"
   inkscape:version="0.48.4 r9939"
   sodipodi:docname="appbar.settings.svg"><metadata
   id="metadata10"><rdf:RDF><cc:Work
       rdf:about=""><dc:format>image/svg+xml</dc:format><dc:type
         rdf:resource="http://purl.org/dc/dcmitype/StillImage" /></cc:Work></rdf:RDF></metadata><defs
   id="defs8" /><sodipodi:namedview
   pagecolor="#ffffff"
   bordercolor="#666666"
   borderopacity="1"
   objecttolerance="10"
   gridtolerance="10"
   guidetolerance="10"
   inkscape:pageopacity="0"
   inkscape:pageshadow="2"
   inkscape:window-width="976"
   inkscape:window-height="665"
   id="namedview6"
   showgrid="false"
   fit-margin-top="20"
   fit-margin-left="20"
   fit-margin-right="20"
   fit-margin-bottom="20"
   inkscape:zoom="3.1052632"
   inkscape:cx="39.462"
   inkscape:cy="60.423729"
   inkscape:window-x="571"
   inkscape:window-y="167"
   inkscape:window-maximized="0"
   inkscape:current-layer="svg2" />
	<path
   d="m 52.000083,28.158525 c 1.421111,0 2.81312,0.124304 4.165995,0.362718 L 59.608776,20 l 9.146215,3.697718 -3.442532,8.520749 c 2.550042,1.719376 4.749698,3.919033 6.469074,6.469075 L 80.302283,35.245009 84,44.391225 75.478758,47.834087 c 0.238414,1.352711 0.362718,2.744719 0.362718,4.165831 0,1.421112 -0.124304,2.81312 -0.362718,4.165996 L 84,59.608611 l -3.697717,9.146217 -8.52075,-3.442534 c -1.56416,2.31985 -3.525731,4.349657 -5.787046,5.991753 l 3.737673,8.394966 -9.010896,4.0167 -3.738001,-8.395952 c -1.607075,0.341671 -3.274163,0.52155 -4.98318,0.52155 -1.421112,0 -2.81312,-0.124304 -4.165831,-0.362718 L 44.391389,84 35.245173,80.302118 38.687706,71.781533 c -2.550043,-1.71954 -4.749698,-3.919196 -6.469239,-6.469239 L 23.697882,68.754828 20,59.608611 28.521407,56.16575 c -0.238414,-1.352712 -0.362718,-2.74472 -0.362718,-4.165832 0,-1.421112 0.124304,-2.81312 0.362718,-4.165831 L 20,44.391225 l 3.697882,-9.146216 8.520585,3.442533 c 1.564325,-2.31985 3.525896,-4.349657 5.787376,-5.991918 l -3.737673,-8.394965 9.010731,-4.016535 3.738166,8.395952 c 1.607074,-0.341672 3.273999,-0.521551 4.983016,-0.521551 z m 0,7.399053 c -9.080941,0 -16.442341,7.361564 -16.442341,16.44234 0,9.08094 7.3614,16.442341 16.442341,16.442341 9.080775,0 16.44234,-7.361401 16.44234,-16.442341 0,-9.080776 -7.361565,-16.44234 -16.44234,-16.44234 z"
   id="path4"
   inkscape:connector-curvature="0"
   style="fill:#ffffff;fill-opacity:1;stroke-linejoin:round" />
</svg>